<svg width="24" height="24" viewBox="0 0 24 24" fill="none" xmlns="http://www.w3.org/2000/svg">
  <circle cx="12" cy="12" r="12" fill="#2775CA"/>
  <circle cx="12" cy="12" r="8" fill="white"/>
  <path d="M12 4C7.6 4 4 7.6 4 12C4 16.4 7.6 20 12 20C16.4 20 20 16.4 20 12C20 7.6 16.4 4 12 4ZM12 18.4C8.5 18.4 5.6 15.5 5.6 12C5.6 8.5 8.5 5.6 12 5.6C15.5 5.6 18.4 8.5 18.4 12C18.4 15.5 15.5 18.4 12 18.4Z" fill="#2775CA"/>
  <text x="12" y="16" text-anchor="middle" font-family="Arial, sans-serif" font-size="8" font-weight="bold" fill="#2775CA">USDC</text>
</svg>